<?xml version="1.0" encoding="UTF-8" standalone="no"?>
<!-- Created with Inkscape (http://www.inkscape.org/) -->

<svg
   xmlns:dc="http://purl.org/dc/elements/1.1/"
   xmlns:cc="http://creativecommons.org/ns#"
   xmlns:rdf="http://www.w3.org/1999/02/22-rdf-syntax-ns#"
   xmlns:svg="http://www.w3.org/2000/svg"
   xmlns="http://www.w3.org/2000/svg"
   xmlns:sodipodi="http://sodipodi.sourceforge.net/DTD/sodipodi-0.dtd"
   xmlns:inkscape="http://www.inkscape.org/namespaces/inkscape"
   width="744.09448819"
   height="1052.3622047"
   id="svg2"
   version="1.1"
   inkscape:version="0.47 r22583"
   sodipodi:docname="New document 1">
  <defs
     id="defs4">
    <inkscape:perspective
       sodipodi:type="inkscape:persp3d"
       inkscape:vp_x="0 : 526.18109 : 1"
       inkscape:vp_y="0 : 1000 : 0"
       inkscape:vp_z="744.09448 : 526.18109 : 1"
       inkscape:persp3d-origin="372.04724 : 350.78739 : 1"
       id="perspective10" />
  </defs>
  <sodipodi:namedview
     id="base"
     pagecolor="#ffffff"
     bordercolor="#666666"
     borderopacity="1.0"
     inkscape:pageopacity="0.0"
     inkscape:pageshadow="2"
     inkscape:zoom="1"
     inkscape:cx="256.54865"
     inkscape:cy="909.88689"
     inkscape:document-units="px"
     inkscape:current-layer="layer1"
     showgrid="false"
     inkscape:window-width="1024"
     inkscape:window-height="719"
     inkscape:window-x="-4"
     inkscape:window-y="-3"
     inkscape:window-maximized="1" />
  <metadata
     id="metadata7">
    <rdf:RDF>
      <cc:Work
         rdf:about="">
        <dc:format>image/svg+xml</dc:format>
        <dc:type
           rdf:resource="http://purl.org/dc/dcmitype/StillImage" />
        <dc:title></dc:title>
      </cc:Work>
    </rdf:RDF>
  </metadata>
  <g
     inkscape:label="Layer 1"
     inkscape:groupmode="layer"
     id="layer1">
    <g
       transform="matrix(0.81295594,0,0,0.80448918,-118.90574,-44.869198)"
       id="g3775"
       inkscape:export-filename="/home/tom/Projects/nqj/data/images/logo/logo_small.png"
       inkscape:export-xdpi="90"
       inkscape:export-ydpi="90">
      <flowRoot
         style="font-size:40px;font-style:normal;font-weight:normal;fill:#0197fd;fill-opacity:1;stroke:#000000;stroke-width:8;font-family:Bitstream Vera Sans"
         id="flowRoot3777"
         xml:space="preserve"
         transform="matrix(2.9648397,0,0,2.9648397,-282.08066,-496.31719)"><flowRegion
           id="flowRegion3779"><rect
             style="fill:#0197fd;stroke:#000000;stroke-width:8"
             y="181.36218"
             x="148"
             height="166"
             width="393"
             id="rect3781" /></flowRegion><flowPara
           style="font-style:normal;font-variant:normal;font-weight:bold;font-stretch:normal;fill:#0197fd;stroke:#000000;stroke-width:8;font-family:DejaVu Sans;-inkscape-font-specification:DejaVu Sans Bold"
           id="flowPara3783">NQJ</flowPara></flowRoot>      <flowRoot
         xml:space="preserve"
         id="flowRoot3785"
         style="font-size:40px;font-style:normal;font-weight:normal;fill:#0197fd;fill-opacity:1;stroke:none;font-family:Bitstream Vera Sans"
         transform="matrix(2.9648397,0,0,2.9648397,-282.08066,-496.31719)"><flowRegion
           id="flowRegion3787"><rect
             id="rect3789"
             width="393"
             height="166"
             x="148"
             y="181.36218"
             style="fill:#0197fd" /></flowRegion><flowPara
           id="flowPara3791"
           style="font-style:normal;font-variant:normal;font-weight:bold;font-stretch:normal;fill:#0197fd;font-family:DejaVu Sans;-inkscape-font-specification:DejaVu Sans Bold">NQJ</flowPara></flowRoot>      <flowRoot
         transform="matrix(2.9648397,0,0,2.9648397,-282.08066,-496.31719)"
         xml:space="preserve"
         id="flowRoot3793"
         style="font-size:40px;font-style:normal;font-weight:normal;fill:#0197fd;fill-opacity:1;stroke:#000000;stroke-width:8;font-family:Bitstream Vera Sans"><flowRegion
           id="flowRegion3795"><rect
             id="rect3797"
             width="393"
             height="166"
             x="148"
             y="181.36218"
             style="fill:#0197fd;stroke:#000000;stroke-width:8" /></flowRegion><flowPara
           id="flowPara3799"
           style="font-style:normal;font-variant:normal;font-weight:bold;font-stretch:normal;fill:#0197fd;stroke:#000000;stroke-width:8;font-family:DejaVu Sans;-inkscape-font-specification:DejaVu Sans Bold">NQJ</flowPara></flowRoot>      <flowRoot
         transform="matrix(2.9648397,0,0,2.9648397,-282.08066,-496.31719)"
         style="font-size:40px;font-style:normal;font-weight:normal;fill:#0197fd;fill-opacity:1;stroke:none;font-family:Bitstream Vera Sans"
         id="flowRoot3801"
         xml:space="preserve"><flowRegion
           id="flowRegion3803"><rect
             style="fill:#0197fd"
             y="181.36218"
             x="148"
             height="166"
             width="393"
             id="rect3805" /></flowRegion><flowPara
           style="font-style:normal;font-variant:normal;font-weight:bold;font-stretch:normal;fill:#0197fd;font-family:DejaVu Sans;-inkscape-font-specification:DejaVu Sans Bold"
           id="flowPara3807">NQJ</flowPara></flowRoot>      <g
         transform="matrix(2.9648397,0,0,2.9648397,-282.08066,-496.31719)"
         style="font-size:40px;font-style:normal;font-weight:normal;fill:#0197fd;fill-opacity:1;stroke:#000000;stroke-width:8;font-family:Bitstream Vera Sans"
         id="g3809">
        <path
           d="m 151.67187,192.08481 8.39844,0 10.60547,20 0,-20 7.12891,0 0,29.16016 -8.39844,0 -10.60547,-20 0,20 -7.12891,0 0,-29.16016"
           style="font-variant:normal;font-weight:bold;font-stretch:normal;fill:#0197fd;stroke:#000000;font-family:DejaVu Sans;-inkscape-font-specification:DejaVu Sans Bold"
           id="path3811" />
        <path
           d="m 199.30859,221.77231 -0.58593,0 c -4.8047,0 -8.54168,-1.32812 -11.21094,-3.98437 -2.66928,-2.65625 -4.00391,-6.35416 -4.00391,-11.09375 0,-4.72655 1.32812,-8.43097 3.98438,-11.11329 2.66926,-2.68226 6.34113,-4.0234 11.01562,-4.02343 4.72654,3e-5 8.40493,1.32815 11.03516,3.98437 2.6432,2.65627 3.96481,6.37372 3.96484,11.15235 -3e-5,3.28126 -0.70315,6.10677 -2.10937,8.47656 -1.39326,2.36979 -3.40498,4.15365 -6.03516,5.35156 l 5.87891,6.5625 -7.16797,0 -4.76563,-5.3125 m -0.80078,-24.76562 c -2.29168,2e-5 -4.06902,0.84637 -5.33203,2.53906 -1.26303,1.69273 -1.89454,4.07554 -1.89453,7.14844 -1e-5,3.12501 0.61848,5.52084 1.85547,7.1875 1.23697,1.65365 3.02733,2.48047 5.37109,2.48046 2.30467,10e-6 4.08852,-0.84634 5.35156,-2.53906 1.263,-1.6927 1.89451,-4.069 1.89454,-7.1289 -3e-5,-3.0729 -0.63154,-5.45571 -1.89454,-7.14844 -1.26304,-1.69269 -3.04689,-2.53904 -5.35156,-2.53906"
           style="font-variant:normal;font-weight:bold;font-stretch:normal;fill:#0197fd;stroke:#000000;font-family:DejaVu Sans;-inkscape-font-specification:DejaVu Sans Bold"
           id="path3813" />
        <path
           d="m 219.17187,192.08481 7.51954,0 0,26.32813 c -1e-5,3.63281 -0.9896,6.34765 -2.96875,8.14453 -1.96616,1.79686 -4.94792,2.6953 -8.94532,2.69531 l -1.52343,0 0,-5.68359 1.17187,0 c 1.5625,-1e-5 2.74088,-0.4362 3.53516,-1.3086 0.80729,-0.87239 1.21093,-2.15495 1.21093,-3.84765 l 0,-26.32813"
           style="font-variant:normal;font-weight:bold;font-stretch:normal;fill:#0197fd;stroke:#000000;font-family:DejaVu Sans;-inkscape-font-specification:DejaVu Sans Bold"
           id="path3815" />
      </g>
      <g
         transform="matrix(2.9648397,0,0,2.9648397,-282.08066,-496.31719)"
         style="font-size:40px;font-style:normal;font-weight:normal;fill:#0197fd;fill-opacity:1;stroke:none;font-family:Bitstream Vera Sans"
         id="g3817">
        <path
           d="m 151.67187,192.08481 8.39844,0 10.60547,20 0,-20 7.12891,0 0,29.16016 -8.39844,0 -10.60547,-20 0,20 -7.12891,0 0,-29.16016"
           style="font-variant:normal;font-weight:bold;font-stretch:normal;fill:#0197fd;font-family:DejaVu Sans;-inkscape-font-specification:DejaVu Sans Bold"
           id="path3819" />
        <path
           d="m 199.30859,221.77231 -0.58593,0 c -4.8047,0 -8.54168,-1.32812 -11.21094,-3.98437 -2.66928,-2.65625 -4.00391,-6.35416 -4.00391,-11.09375 0,-4.72655 1.32812,-8.43097 3.98438,-11.11329 2.66926,-2.68226 6.34113,-4.0234 11.01562,-4.02343 4.72654,3e-5 8.40493,1.32815 11.03516,3.98437 2.6432,2.65627 3.96481,6.37372 3.96484,11.15235 -3e-5,3.28126 -0.70315,6.10677 -2.10937,8.47656 -1.39326,2.36979 -3.40498,4.15365 -6.03516,5.35156 l 5.87891,6.5625 -7.16797,0 -4.76563,-5.3125 m -0.80078,-24.76562 c -2.29168,2e-5 -4.06902,0.84637 -5.33203,2.53906 -1.26303,1.69273 -1.89454,4.07554 -1.89453,7.14844 -1e-5,3.12501 0.61848,5.52084 1.85547,7.1875 1.23697,1.65365 3.02733,2.48047 5.37109,2.48046 2.30467,10e-6 4.08852,-0.84634 5.35156,-2.53906 1.263,-1.6927 1.89451,-4.069 1.89454,-7.1289 -3e-5,-3.0729 -0.63154,-5.45571 -1.89454,-7.14844 -1.26304,-1.69269 -3.04689,-2.53904 -5.35156,-2.53906"
           style="font-variant:normal;font-weight:bold;font-stretch:normal;fill:#0197fd;font-family:DejaVu Sans;-inkscape-font-specification:DejaVu Sans Bold"
           id="path3821" />
        <path
           d="m 219.17187,192.08481 7.51954,0 0,26.32813 c -1e-5,3.63281 -0.9896,6.34765 -2.96875,8.14453 -1.96616,1.79686 -4.94792,2.6953 -8.94532,2.69531 l -1.52343,0 0,-5.68359 1.17187,0 c 1.5625,-1e-5 2.74088,-0.4362 3.53516,-1.3086 0.80729,-0.87239 1.21093,-2.15495 1.21093,-3.84765 l 0,-26.32813"
           style="font-variant:normal;font-weight:bold;font-stretch:normal;fill:#0197fd;font-family:DejaVu Sans;-inkscape-font-specification:DejaVu Sans Bold"
           id="path3823" />
      </g>
      <g
         transform="matrix(2.9648397,0,0,2.9648397,-282.08066,-496.31719)"
         style="font-size:40px;font-style:normal;font-weight:normal;fill:#0197fd;fill-opacity:1;stroke:#000000;stroke-width:8;font-family:Bitstream Vera Sans"
         id="g3825">
        <path
           d="m 151.67187,192.08481 8.39844,0 10.60547,20 0,-20 7.12891,0 0,29.16016 -8.39844,0 -10.60547,-20 0,20 -7.12891,0 0,-29.16016"
           style="font-variant:normal;font-weight:bold;font-stretch:normal;fill:#0197fd;stroke:#000000;font-family:DejaVu Sans;-inkscape-font-specification:DejaVu Sans Bold"
           id="path3827" />
        <path
           d="m 199.30859,221.77231 -0.58593,0 c -4.8047,0 -8.54168,-1.32812 -11.21094,-3.98437 -2.66928,-2.65625 -4.00391,-6.35416 -4.00391,-11.09375 0,-4.72655 1.32812,-8.43097 3.98438,-11.11329 2.66926,-2.68226 6.34113,-4.0234 11.01562,-4.02343 4.72654,3e-5 8.40493,1.32815 11.03516,3.98437 2.6432,2.65627 3.96481,6.37372 3.96484,11.15235 -3e-5,3.28126 -0.70315,6.10677 -2.10937,8.47656 -1.39326,2.36979 -3.40498,4.15365 -6.03516,5.35156 l 5.87891,6.5625 -7.16797,0 -4.76563,-5.3125 m -0.80078,-24.76562 c -2.29168,2e-5 -4.06902,0.84637 -5.33203,2.53906 -1.26303,1.69273 -1.89454,4.07554 -1.89453,7.14844 -1e-5,3.12501 0.61848,5.52084 1.85547,7.1875 1.23697,1.65365 3.02733,2.48047 5.37109,2.48046 2.30467,10e-6 4.08852,-0.84634 5.35156,-2.53906 1.263,-1.6927 1.89451,-4.069 1.89454,-7.1289 -3e-5,-3.0729 -0.63154,-5.45571 -1.89454,-7.14844 -1.26304,-1.69269 -3.04689,-2.53904 -5.35156,-2.53906"
           style="font-variant:normal;font-weight:bold;font-stretch:normal;fill:#0197fd;stroke:#000000;font-family:DejaVu Sans;-inkscape-font-specification:DejaVu Sans Bold"
           id="path3829" />
        <path
           d="m 219.17187,192.08481 7.51954,0 0,26.32813 c -1e-5,3.63281 -0.9896,6.34765 -2.96875,8.14453 -1.96616,1.79686 -4.94792,2.6953 -8.94532,2.69531 l -1.52343,0 0,-5.68359 1.17187,0 c 1.5625,-1e-5 2.74088,-0.4362 3.53516,-1.3086 0.80729,-0.87239 1.21093,-2.15495 1.21093,-3.84765 l 0,-26.32813"
           style="font-variant:normal;font-weight:bold;font-stretch:normal;fill:#0197fd;stroke:#000000;font-family:DejaVu Sans;-inkscape-font-specification:DejaVu Sans Bold"
           id="path3831" />
      </g>
      <g
         transform="matrix(2.9648397,0,0,2.9648397,-282.08066,-496.31719)"
         style="font-size:40px;font-style:normal;font-weight:normal;fill:#0197fd;fill-opacity:1;stroke:none;font-family:Bitstream Vera Sans"
         id="g3833">
        <path
           d="m 151.67187,192.08481 8.39844,0 10.60547,20 0,-20 7.12891,0 0,29.16016 -8.39844,0 -10.60547,-20 0,20 -7.12891,0 0,-29.16016"
           style="font-variant:normal;font-weight:bold;font-stretch:normal;fill:#0197fd;font-family:DejaVu Sans;-inkscape-font-specification:DejaVu Sans Bold"
           id="path3835" />
        <path
           d="m 199.30859,221.77231 -0.58593,0 c -4.8047,0 -8.54168,-1.32812 -11.21094,-3.98437 -2.66928,-2.65625 -4.00391,-6.35416 -4.00391,-11.09375 0,-4.72655 1.32812,-8.43097 3.98438,-11.11329 2.66926,-2.68226 6.34113,-4.0234 11.01562,-4.02343 4.72654,3e-5 8.40493,1.32815 11.03516,3.98437 2.6432,2.65627 3.96481,6.37372 3.96484,11.15235 -3e-5,3.28126 -0.70315,6.10677 -2.10937,8.47656 -1.39326,2.36979 -3.40498,4.15365 -6.03516,5.35156 l 5.87891,6.5625 -7.16797,0 -4.76563,-5.3125 m -0.80078,-24.76562 c -2.29168,2e-5 -4.06902,0.84637 -5.33203,2.53906 -1.26303,1.69273 -1.89454,4.07554 -1.89453,7.14844 -1e-5,3.12501 0.61848,5.52084 1.85547,7.1875 1.23697,1.65365 3.02733,2.48047 5.37109,2.48046 2.30467,10e-6 4.08852,-0.84634 5.35156,-2.53906 1.263,-1.6927 1.89451,-4.069 1.89454,-7.1289 -3e-5,-3.0729 -0.63154,-5.45571 -1.89454,-7.14844 -1.26304,-1.69269 -3.04689,-2.53904 -5.35156,-2.53906"
           style="font-variant:normal;font-weight:bold;font-stretch:normal;fill:#0197fd;font-family:DejaVu Sans;-inkscape-font-specification:DejaVu Sans Bold"
           id="path3837" />
        <path
           d="m 219.17187,192.08481 7.51954,0 0,26.32813 c -1e-5,3.63281 -0.9896,6.34765 -2.96875,8.14453 -1.96616,1.79686 -4.94792,2.6953 -8.94532,2.69531 l -1.52343,0 0,-5.68359 1.17187,0 c 1.5625,-1e-5 2.74088,-0.4362 3.53516,-1.3086 0.80729,-0.87239 1.21093,-2.15495 1.21093,-3.84765 l 0,-26.32813"
           style="font-variant:normal;font-weight:bold;font-stretch:normal;fill:#0197fd;font-family:DejaVu Sans;-inkscape-font-specification:DejaVu Sans Bold"
           id="path3839" />
      </g>
      <g
         id="g3841"
         style="font-size:40px;font-style:normal;font-weight:normal;fill:#0197fd;fill-opacity:1;stroke:#000000;stroke-width:8;font-family:Bitstream Vera Sans"
         transform="matrix(2.9648397,0,0,2.9648397,-282.08066,-496.31719)">
        <path
           id="path3843"
           style="font-variant:normal;font-weight:bold;font-stretch:normal;fill:#0197fd;stroke:#000000;font-family:DejaVu Sans;-inkscape-font-specification:DejaVu Sans Bold"
           d="m 151.67187,192.08481 8.39844,0 10.60547,20 0,-20 7.12891,0 0,29.16016 -8.39844,0 -10.60547,-20 0,20 -7.12891,0 0,-29.16016" />
        <path
           id="path3845"
           style="font-variant:normal;font-weight:bold;font-stretch:normal;fill:#0197fd;stroke:#000000;font-family:DejaVu Sans;-inkscape-font-specification:DejaVu Sans Bold"
           d="m 199.30859,221.77231 -0.58593,0 c -4.8047,0 -8.54168,-1.32812 -11.21094,-3.98437 -2.66928,-2.65625 -4.00391,-6.35416 -4.00391,-11.09375 0,-4.72655 1.32812,-8.43097 3.98438,-11.11329 2.66926,-2.68226 6.34113,-4.0234 11.01562,-4.02343 4.72654,3e-5 8.40493,1.32815 11.03516,3.98437 2.6432,2.65627 3.96481,6.37372 3.96484,11.15235 -3e-5,3.28126 -0.70315,6.10677 -2.10937,8.47656 -1.39326,2.36979 -3.40498,4.15365 -6.03516,5.35156 l 5.87891,6.5625 -7.16797,0 -4.76563,-5.3125 m -0.80078,-24.76562 c -2.29168,2e-5 -4.06902,0.84637 -5.33203,2.53906 -1.26303,1.69273 -1.89454,4.07554 -1.89453,7.14844 -1e-5,3.12501 0.61848,5.52084 1.85547,7.1875 1.23697,1.65365 3.02733,2.48047 5.37109,2.48046 2.30467,10e-6 4.08852,-0.84634 5.35156,-2.53906 1.263,-1.6927 1.89451,-4.069 1.89454,-7.1289 -3e-5,-3.0729 -0.63154,-5.45571 -1.89454,-7.14844 -1.26304,-1.69269 -3.04689,-2.53904 -5.35156,-2.53906" />
        <path
           id="path3847"
           style="font-variant:normal;font-weight:bold;font-stretch:normal;fill:#0197fd;stroke:#000000;font-family:DejaVu Sans;-inkscape-font-specification:DejaVu Sans Bold"
           d="m 219.17187,192.08481 7.51954,0 0,26.32813 c -1e-5,3.63281 -0.9896,6.34765 -2.96875,8.14453 -1.96616,1.79686 -4.94792,2.6953 -8.94532,2.69531 l -1.52343,0 0,-5.68359 1.17187,0 c 1.5625,-1e-5 2.74088,-0.4362 3.53516,-1.3086 0.80729,-0.87239 1.21093,-2.15495 1.21093,-3.84765 l 0,-26.32813" />
      </g>
      <g
         id="g3849"
         style="font-size:40px;font-style:normal;font-weight:normal;fill:#0197fd;fill-opacity:1;stroke:none;font-family:Bitstream Vera Sans"
         transform="matrix(2.9648397,0,0,2.9648397,-282.08066,-496.31719)">
        <path
           id="path3851"
           style="font-variant:normal;font-weight:bold;font-stretch:normal;fill:#0197fd;font-family:DejaVu Sans;-inkscape-font-specification:DejaVu Sans Bold"
           d="m 151.67187,192.08481 8.39844,0 10.60547,20 0,-20 7.12891,0 0,29.16016 -8.39844,0 -10.60547,-20 0,20 -7.12891,0 0,-29.16016" />
        <path
           id="path3853"
           style="font-variant:normal;font-weight:bold;font-stretch:normal;fill:#0197fd;font-family:DejaVu Sans;-inkscape-font-specification:DejaVu Sans Bold"
           d="m 199.30859,221.77231 -0.58593,0 c -4.8047,0 -8.54168,-1.32812 -11.21094,-3.98437 -2.66928,-2.65625 -4.00391,-6.35416 -4.00391,-11.09375 0,-4.72655 1.32812,-8.43097 3.98438,-11.11329 2.66926,-2.68226 6.34113,-4.0234 11.01562,-4.02343 4.72654,3e-5 8.40493,1.32815 11.03516,3.98437 2.6432,2.65627 3.96481,6.37372 3.96484,11.15235 -3e-5,3.28126 -0.70315,6.10677 -2.10937,8.47656 -1.39326,2.36979 -3.40498,4.15365 -6.03516,5.35156 l 5.87891,6.5625 -7.16797,0 -4.76563,-5.3125 m -0.80078,-24.76562 c -2.29168,2e-5 -4.06902,0.84637 -5.33203,2.53906 -1.26303,1.69273 -1.89454,4.07554 -1.89453,7.14844 -1e-5,3.12501 0.61848,5.52084 1.85547,7.1875 1.23697,1.65365 3.02733,2.48047 5.37109,2.48046 2.30467,10e-6 4.08852,-0.84634 5.35156,-2.53906 1.263,-1.6927 1.89451,-4.069 1.89454,-7.1289 -3e-5,-3.0729 -0.63154,-5.45571 -1.89454,-7.14844 -1.26304,-1.69269 -3.04689,-2.53904 -5.35156,-2.53906" />
        <path
           id="path3855"
           style="font-variant:normal;font-weight:bold;font-stretch:normal;fill:#0197fd;font-family:DejaVu Sans;-inkscape-font-specification:DejaVu Sans Bold"
           d="m 219.17187,192.08481 7.51954,0 0,26.32813 c -1e-5,3.63281 -0.9896,6.34765 -2.96875,8.14453 -1.96616,1.79686 -4.94792,2.6953 -8.94532,2.69531 l -1.52343,0 0,-5.68359 1.17187,0 c 1.5625,-1e-5 2.74088,-0.4362 3.53516,-1.3086 0.80729,-0.87239 1.21093,-2.15495 1.21093,-3.84765 l 0,-26.32813" />
      </g>
      <g
         id="g3857"
         style="font-size:40px;font-style:normal;font-weight:normal;fill:#0197fd;fill-opacity:1;stroke:#000000;stroke-width:8;font-family:Bitstream Vera Sans"
         transform="matrix(2.9648397,0,0,2.9648397,-282.08066,-496.31719)">
        <path
           id="path3859"
           style="font-variant:normal;font-weight:bold;font-stretch:normal;fill:#0197fd;stroke:#000000;font-family:DejaVu Sans;-inkscape-font-specification:DejaVu Sans Bold"
           d="m 151.67187,192.08481 8.39844,0 10.60547,20 0,-20 7.12891,0 0,29.16016 -8.39844,0 -10.60547,-20 0,20 -7.12891,0 0,-29.16016" />
        <path
           id="path3861"
           style="font-variant:normal;font-weight:bold;font-stretch:normal;fill:#0197fd;stroke:#000000;font-family:DejaVu Sans;-inkscape-font-specification:DejaVu Sans Bold"
           d="m 199.30859,221.77231 -0.58593,0 c -4.8047,0 -8.54168,-1.32812 -11.21094,-3.98437 -2.66928,-2.65625 -4.00391,-6.35416 -4.00391,-11.09375 0,-4.72655 1.32812,-8.43097 3.98438,-11.11329 2.66926,-2.68226 6.34113,-4.0234 11.01562,-4.02343 4.72654,3e-5 8.40493,1.32815 11.03516,3.98437 2.6432,2.65627 3.96481,6.37372 3.96484,11.15235 -3e-5,3.28126 -0.70315,6.10677 -2.10937,8.47656 -1.39326,2.36979 -3.40498,4.15365 -6.03516,5.35156 l 5.87891,6.5625 -7.16797,0 -4.76563,-5.3125 m -0.80078,-24.76562 c -2.29168,2e-5 -4.06902,0.84637 -5.33203,2.53906 -1.26303,1.69273 -1.89454,4.07554 -1.89453,7.14844 -1e-5,3.12501 0.61848,5.52084 1.85547,7.1875 1.23697,1.65365 3.02733,2.48047 5.37109,2.48046 2.30467,10e-6 4.08852,-0.84634 5.35156,-2.53906 1.263,-1.6927 1.89451,-4.069 1.89454,-7.1289 -3e-5,-3.0729 -0.63154,-5.45571 -1.89454,-7.14844 -1.26304,-1.69269 -3.04689,-2.53904 -5.35156,-2.53906" />
        <path
           id="path3863"
           style="font-variant:normal;font-weight:bold;font-stretch:normal;fill:#0197fd;stroke:#000000;font-family:DejaVu Sans;-inkscape-font-specification:DejaVu Sans Bold"
           d="m 219.17187,192.08481 7.51954,0 0,26.32813 c -1e-5,3.63281 -0.9896,6.34765 -2.96875,8.14453 -1.96616,1.79686 -4.94792,2.6953 -8.94532,2.69531 l -1.52343,0 0,-5.68359 1.17187,0 c 1.5625,-1e-5 2.74088,-0.4362 3.53516,-1.3086 0.80729,-0.87239 1.21093,-2.15495 1.21093,-3.84765 l 0,-26.32813" />
      </g>
      <g
         id="g3865"
         style="font-size:40px;font-style:normal;font-weight:normal;fill:#0197fd;fill-opacity:1;stroke:none;font-family:Bitstream Vera Sans"
         transform="matrix(2.9648397,0,0,2.9648397,-282.08066,-496.31719)">
        <path
           id="path3867"
           style="font-variant:normal;font-weight:bold;font-stretch:normal;fill:#0197fd;font-family:DejaVu Sans;-inkscape-font-specification:DejaVu Sans Bold"
           d="m 151.67187,192.08481 8.39844,0 10.60547,20 0,-20 7.12891,0 0,29.16016 -8.39844,0 -10.60547,-20 0,20 -7.12891,0 0,-29.16016" />
        <path
           id="path3869"
           style="font-variant:normal;font-weight:bold;font-stretch:normal;fill:#0197fd;font-family:DejaVu Sans;-inkscape-font-specification:DejaVu Sans Bold"
           d="m 199.30859,221.77231 -0.58593,0 c -4.8047,0 -8.54168,-1.32812 -11.21094,-3.98437 -2.66928,-2.65625 -4.00391,-6.35416 -4.00391,-11.09375 0,-4.72655 1.32812,-8.43097 3.98438,-11.11329 2.66926,-2.68226 6.34113,-4.0234 11.01562,-4.02343 4.72654,3e-5 8.40493,1.32815 11.03516,3.98437 2.6432,2.65627 3.96481,6.37372 3.96484,11.15235 -3e-5,3.28126 -0.70315,6.10677 -2.10937,8.47656 -1.39326,2.36979 -3.40498,4.15365 -6.03516,5.35156 l 5.87891,6.5625 -7.16797,0 -4.76563,-5.3125 m -0.80078,-24.76562 c -2.29168,2e-5 -4.06902,0.84637 -5.33203,2.53906 -1.26303,1.69273 -1.89454,4.07554 -1.89453,7.14844 -1e-5,3.12501 0.61848,5.52084 1.85547,7.1875 1.23697,1.65365 3.02733,2.48047 5.37109,2.48046 2.30467,10e-6 4.08852,-0.84634 5.35156,-2.53906 1.263,-1.6927 1.89451,-4.069 1.89454,-7.1289 -3e-5,-3.0729 -0.63154,-5.45571 -1.89454,-7.14844 -1.26304,-1.69269 -3.04689,-2.53904 -5.35156,-2.53906" />
        <path
           id="path3871"
           style="font-variant:normal;font-weight:bold;font-stretch:normal;fill:#0197fd;font-family:DejaVu Sans;-inkscape-font-specification:DejaVu Sans Bold"
           d="m 219.17187,192.08481 7.51954,0 0,26.32813 c -1e-5,3.63281 -0.9896,6.34765 -2.96875,8.14453 -1.96616,1.79686 -4.94792,2.6953 -8.94532,2.69531 l -1.52343,0 0,-5.68359 1.17187,0 c 1.5625,-1e-5 2.74088,-0.4362 3.53516,-1.3086 0.80729,-0.87239 1.21093,-2.15495 1.21093,-3.84765 l 0,-26.32813" />
      </g>
    </g>
  </g>
</svg>
